<svg width="109" height="24" viewBox="0 0 109 24" fill="none" xmlns="http://www.w3.org/2000/svg">
<path d="M0.56 23.28V6.096H3.44L3.8 7.752C4.056 7.4 4.36 7.08 4.712 6.792C5.064 6.488 5.488 6.248 5.984 6.072C6.48 5.896 7.056 5.808 7.712 5.808C8.832 5.808 9.824 6.08 10.688 6.624C11.568 7.168 12.264 7.912 12.776 8.856C13.288 9.8 13.544 10.872 13.544 12.072C13.544 13.256 13.288 14.32 12.776 15.264C12.264 16.208 11.568 16.952 10.688 17.496C9.824 18.024 8.832 18.288 7.712 18.288C6.832 18.288 6.064 18.128 5.408 17.808C4.752 17.472 4.216 17.016 3.8 16.44V23.28H0.56ZM6.992 15.456C7.616 15.456 8.176 15.312 8.672 15.024C9.168 14.736 9.552 14.336 9.824 13.824C10.112 13.312 10.256 12.728 10.256 12.072C10.256 11.4 10.112 10.808 9.824 10.296C9.552 9.784 9.168 9.384 8.672 9.096C8.176 8.792 7.616 8.64 6.992 8.64C6.352 8.64 5.784 8.792 5.288 9.096C4.792 9.384 4.4 9.784 4.112 10.296C3.84 10.808 3.704 11.392 3.704 12.048C3.704 12.704 3.84 13.296 4.112 13.824C4.4 14.336 4.792 14.736 5.288 15.024C5.784 15.312 6.352 15.456 6.992 15.456ZM16.31 18V0.719999H19.55V18H16.31ZM26.7656 18.288C25.7576 18.288 24.9176 18.128 24.2456 17.808C23.5896 17.488 23.1016 17.056 22.7816 16.512C22.4616 15.968 22.3016 15.368 22.3016 14.712C22.3016 13.976 22.4856 13.336 22.8536 12.792C23.2376 12.232 23.8136 11.792 24.5816 11.472C25.3496 11.152 26.3176 10.992 27.4856 10.992H30.4856C30.4856 10.416 30.3976 9.944 30.2216 9.576C30.0616 9.192 29.8056 8.912 29.4536 8.736C29.1176 8.544 28.6856 8.448 28.1576 8.448C27.5336 8.448 26.9976 8.584 26.5496 8.856C26.1176 9.128 25.8456 9.544 25.7336 10.104H22.5896C22.6856 9.224 22.9816 8.464 23.4776 7.824C23.9736 7.184 24.6296 6.688 25.4456 6.336C26.2616 5.984 27.1656 5.808 28.1576 5.808C29.2936 5.808 30.2776 6 31.1096 6.384C31.9416 6.752 32.5816 7.304 33.0296 8.04C33.4936 8.76 33.7256 9.64 33.7256 10.68V18H30.9896L30.6296 16.152C30.4696 16.472 30.2616 16.76 30.0056 17.016C29.7656 17.272 29.4856 17.496 29.1656 17.688C28.8456 17.88 28.4856 18.024 28.0856 18.12C27.6856 18.232 27.2456 18.288 26.7656 18.288ZM27.5336 15.792C27.9656 15.792 28.3416 15.72 28.6616 15.576C28.9976 15.416 29.2776 15.208 29.5016 14.952C29.7416 14.696 29.9256 14.4 30.0536 14.064C30.1976 13.728 30.2936 13.368 30.3416 12.984H27.8456C27.3496 12.984 26.9416 13.048 26.6216 13.176C26.3176 13.288 26.0936 13.456 25.9496 13.68C25.8056 13.888 25.7336 14.136 25.7336 14.424C25.7336 14.712 25.8056 14.96 25.9496 15.168C26.0936 15.376 26.3016 15.536 26.5736 15.648C26.8456 15.744 27.1656 15.792 27.5336 15.792ZM36.6303 18V6.096H39.4863L39.7263 8.088C40.0943 7.4 40.6223 6.848 41.3103 6.432C41.9983 6.016 42.8223 5.808 43.7823 5.808C44.7743 5.808 45.6143 6.024 46.3023 6.456C46.9903 6.872 47.5183 7.488 47.8863 8.304C48.2543 9.12 48.4383 10.128 48.4383 11.328V18H45.1983V11.616C45.1983 10.624 44.9983 9.864 44.5983 9.336C44.1983 8.808 43.5663 8.544 42.7023 8.544C42.1583 8.544 41.6703 8.68 41.2383 8.952C40.8063 9.208 40.4703 9.584 40.2303 10.08C39.9903 10.56 39.8703 11.152 39.8703 11.856V18H36.6303ZM51.4205 18V1.2H55.2845L60.5165 11.664L65.6765 1.2H69.5405V18H66.3005V6.696L61.7645 15.6H59.1965L54.6605 6.672V18H51.4205ZM76.8046 18.288C75.7966 18.288 74.9566 18.128 74.2846 17.808C73.6286 17.488 73.1406 17.056 72.8206 16.512C72.5006 15.968 72.3406 15.368 72.3406 14.712C72.3406 13.976 72.5246 13.336 72.8926 12.792C73.2766 12.232 73.8526 11.792 74.6206 11.472C75.3886 11.152 76.3566 10.992 77.5246 10.992H80.5246C80.5246 10.416 80.4366 9.944 80.2606 9.576C80.1006 9.192 79.8446 8.912 79.4926 8.736C79.1566 8.544 78.7246 8.448 78.1966 8.448C77.5726 8.448 77.0366 8.584 76.5886 8.856C76.1566 9.128 75.8846 9.544 75.7726 10.104H72.6286C72.7246 9.224 73.0206 8.464 73.5166 7.824C74.0126 7.184 74.6686 6.688 75.4846 6.336C76.3006 5.984 77.2046 5.808 78.1966 5.808C79.3326 5.808 80.3166 6 81.1486 6.384C81.9806 6.752 82.6206 7.304 83.0686 8.04C83.5326 8.76 83.7646 9.64 83.7646 10.68V18H81.0286L80.6686 16.152C80.5086 16.472 80.3006 16.76 80.0446 17.016C79.8046 17.272 79.5246 17.496 79.2046 17.688C78.8846 17.88 78.5246 18.024 78.1246 18.12C77.7246 18.232 77.2846 18.288 76.8046 18.288ZM77.5726 15.792C78.0046 15.792 78.3806 15.72 78.7006 15.576C79.0366 15.416 79.3166 15.208 79.5406 14.952C79.7806 14.696 79.9646 14.4 80.0926 14.064C80.2366 13.728 80.3326 13.368 80.3806 12.984H77.8846C77.3886 12.984 76.9806 13.048 76.6606 13.176C76.3566 13.288 76.1326 13.456 75.9886 13.68C75.8446 13.888 75.7726 14.136 75.7726 14.424C75.7726 14.712 75.8446 14.96 75.9886 15.168C76.1326 15.376 76.3406 15.536 76.6126 15.648C76.8846 15.744 77.2046 15.792 77.5726 15.792ZM91.9288 18C91.0808 18 90.3368 17.872 89.6968 17.616C89.0728 17.344 88.5848 16.904 88.2328 16.296C87.8808 15.672 87.7048 14.824 87.7048 13.752V8.808H85.6648V6.096H87.7048L88.0648 2.856H90.9448V6.096H94.1128V8.808H90.9448V13.8C90.9448 14.344 91.0648 14.72 91.3047 14.928C91.5448 15.136 91.9528 15.24 92.5288 15.24H94.0408V18H91.9288ZM102.275 18.288C101.059 18.288 99.9788 18.032 99.0348 17.52C98.1068 17.008 97.3788 16.288 96.8508 15.36C96.3228 14.432 96.0588 13.368 96.0588 12.168C96.0588 10.92 96.3148 9.824 96.8268 8.88C97.3548 7.92 98.0828 7.168 99.0108 6.624C99.9548 6.08 101.051 5.808 102.299 5.808C103.483 5.808 104.523 6.064 105.419 6.576C106.331 7.088 107.035 7.792 107.531 8.688C108.043 9.568 108.299 10.568 108.299 11.688C108.299 11.848 108.299 12.032 108.299 12.24C108.299 12.432 108.283 12.632 108.251 12.84H98.3868V10.848H105.011C104.963 10.128 104.683 9.544 104.171 9.096C103.675 8.648 103.051 8.424 102.299 8.424C101.739 8.424 101.227 8.552 100.763 8.808C100.299 9.048 99.9308 9.416 99.6588 9.912C99.3868 10.408 99.2508 11.032 99.2508 11.784V12.48C99.2508 13.12 99.3788 13.68 99.6348 14.16C99.8908 14.64 100.243 15.008 100.691 15.264C101.155 15.52 101.675 15.648 102.251 15.648C102.843 15.648 103.339 15.52 103.739 15.264C104.139 14.992 104.443 14.648 104.651 14.232H107.963C107.723 14.984 107.339 15.672 106.811 16.296C106.283 16.904 105.635 17.392 104.867 17.76C104.099 18.112 103.235 18.288 102.275 18.288Z" fill="#1344FF"/>
</svg>
