<svg width="16" height="14" viewBox="0 0 16 14" fill="none" xmlns="http://www.w3.org/2000/svg">
<path d="M3.75 13.6818V2.03636H0V0H9.625V2.03636H5.875V13.6818H3.75ZM14.5 14C13.5833 14 12.8646 13.7293 12.3438 13.188C11.8229 12.6467 11.5625 11.8992 11.5625 10.9455V5.79091H9.875V3.94545H11.5625V1.17727H13.625V3.94545H15.9375V5.79091H13.625V10.5C13.625 10.9879 13.7346 11.3697 13.9538 11.6455C14.1729 11.9212 14.4696 12.0591 14.8438 12.0591C15.0313 12.0591 15.2238 12.0218 15.4213 11.9471C15.6188 11.8724 15.8117 11.7719 16 11.6455V13.7136C15.7917 13.8197 15.5625 13.8939 15.3125 13.9364C15.0625 13.9788 14.7917 14 14.5 14Z" fill="black"/>
</svg>
