<svg width="24" height="24" viewBox="0 0 24 24" fill="none" xmlns="http://www.w3.org/2000/svg">
<path d="M7.99996 19C7.71663 19 7.4793 18.904 7.28796 18.712C7.09663 18.52 7.00063 18.2827 6.99996 18C6.9993 17.7174 7.0953 17.48 7.28796 17.288C7.48063 17.096 7.71796 17 7.99996 17H14.1C15.15 17 16.0626 16.6667 16.838 16C17.6133 15.3334 18.0006 14.5 18 13.5C17.9993 12.5 17.612 11.6667 16.838 11C16.064 10.3334 15.1513 10 14.1 10H7.79996L9.69996 11.9C9.8833 12.0834 9.97497 12.3167 9.97497 12.6C9.97497 12.8834 9.8833 13.1167 9.69996 13.3C9.51663 13.4834 9.2833 13.575 8.99996 13.575C8.71663 13.575 8.4833 13.4834 8.29996 13.3L4.69996 9.70005C4.59996 9.60005 4.52896 9.49172 4.48696 9.37505C4.44496 9.25838 4.42463 9.13338 4.42596 9.00005C4.4273 8.86672 4.4483 8.74172 4.48896 8.62505C4.52963 8.50838 4.59996 8.40005 4.69996 8.30005L8.29996 4.70005C8.4833 4.51672 8.71663 4.42505 8.99996 4.42505C9.2833 4.42505 9.51663 4.51672 9.69996 4.70005C9.8833 4.88338 9.97497 5.11672 9.97497 5.40005C9.97497 5.68338 9.8833 5.91672 9.69996 6.10005L7.79996 8.00005H14.1C15.7166 8.00005 17.1043 8.52505 18.263 9.57505C19.4216 10.625 20.0006 11.9334 20 13.5C19.9993 15.0667 19.4203 16.375 18.263 17.425C17.1056 18.475 15.718 19 14.1 19H7.99996Z" fill="black"/>
</svg>
